# xmcd
#
# Track frame offsets:
#	150
#	22758
#	44847
#	61305
#	82208
#	110144
#	128543
#	147499
#	168477
#	188506
#	221666
#
# Disc length: 3705 seconds
#
# Revision: 1
# Processed by: cddbd v1.4PL0 Copyright (c) Steve Scherf et al.
# Submitted via: audiograbber 1.80.04
#
DISCID=a00e770b
DTITLE=Magic Slim and The Teardrops - Blue Magic
DYEAR=2002
DGENRE=Blues
TTITLE0=I'm A Bluesman
TTITLE1=Chickenheads
TTITLE2=Get Your Business Straight
TTITLE3=How Many More Years
TTITLE4=Evil Woman Blues
TTITLE5=You Got To Play
TTITLE6=Lonely For Your Love
TTITLE7=I Want To See You in The Evening
TTITLE8=I Started Loving You Again
TTITLE9=Goin' To Mississipi
TTITLE10=Dati Traccia
EXTD=
EXTT0=
EXTT1=
EXTT2=
EXTT3=
EXTT4=
EXTT5=
EXTT6=
EXTT7=
EXTT8=
EXTT9=
EXTT10=
PLAYORDER=
